<svg id="Logo" xmlns="http://www.w3.org/2000/svg" xmlns:xlink="http://www.w3.org/1999/xlink" viewBox="0 0 284 50.2046"><defs><style>.cls-1{fill:url(#linear-gradient);}.cls-2{fill:#1b1159;}</style><linearGradient id="linear-gradient" x1="20.7515" y1="49.4144" x2="33.1164" y2="3.2679" gradientUnits="userSpaceOnUse"><stop offset="0" stop-color="#4b2e83"/><stop offset="0.0133" stop-color="#4c2f85"/><stop offset="0.3064" stop-color="#5840ab"/><stop offset="0.5778" stop-color="#614cc6"/><stop offset="0.8175" stop-color="#6653d6"/><stop offset="1" stop-color="#6856dc"/></linearGradient></defs><title>CommonCircle_HorizontalLogo_RGB</title><path class="cls-1" d="M42.5586,17.9857l-.4865-.3248c-.002-.0429-.0034-.0833-.0058-.1274a16.6454,16.6454,0,0,0-33.2138-.41l-.0563.6073c-.0259.0176-.0507.0324-.0767.05A16.6478,16.6478,0,0,0,24.7789,46.7685c.0751-.0327.1486-.0677.2216-.1048l.07-.0354.3778-.2c.0449.0224.0883.0449.1339.0672a16.6483,16.6483,0,0,0,16.9765-28.51Zm-2.3141,8.0662.306.4458a9.1732,9.1732,0,0,1-8.1068,14.2051,9.0865,9.0865,0,0,1-3.18-.7406,8.9628,8.9628,0,0,1-1.1666-.591c-.2238-.1361-.4338-.2861-.6414-.438a9.0948,9.0948,0,0,1-2.145-2.2172,9.2176,9.2176,0,0,1-1.3751-3.1467l-.0138-.0634.02-.0619a6.3256,6.3256,0,0,0-6.02-8.276c-.1915,0-.3838.0089-.5745.0265a6.3265,6.3265,0,0,0-.02,12.6032l.1423.013.0546.1315A16.7055,16.7055,0,0,0,18.7239,40.28l.0112.018c.0647.105.1528.2331.22.3371l-.55.0274A9.1933,9.1933,0,0,1,13.6777,23.478c.2515-.1408.5168-.2719.8113-.4007a9.07,9.07,0,0,1,3.0117-.7322,9.466,9.466,0,0,1,1.08-.0065,9.1254,9.1254,0,0,1,2.1942.3591l.0622.0185.0447.0477a6.3778,6.3778,0,0,0,3.3677,1.903,6.4764,6.4764,0,0,0,4.3783-.6663,6.3907,6.3907,0,0,0,.8545-.583,6.5692,6.5692,0,0,0,1.8227-2.3534,6.466,6.466,0,0,0,.4468-1.435,6.3332,6.3332,0,0,0,.0584-1.9535,6.255,6.255,0,0,0-.746-2.3006c-.0923-.165-.1945-.3215-.2991-.4749a6.3759,6.3759,0,0,0-8.326-1.96,6.26,6.26,0,0,0-2.108,1.9254l-.0807.1173-.1416-.017a16.3375,16.3375,0,0,0-1.9349-.1126c-.2669,0-.5361.0065-.806.0188-.1238.0056-.2729.018-.3969.0265l.2346-.4914a9.2005,9.2005,0,0,1,8.2413-5.1451c.0723,0,.1439.0008.2154.0027a9.1935,9.1935,0,0,1,8.9643,9.3969,9.2173,9.2173,0,0,1-1.069,4.0491c-.1323.25-.2723.4949-.4261.73a9.2586,9.2586,0,0,1-1.4436,1.7273l-.0476.0442-.0631.0139a6.3721,6.3721,0,0,0-2.5864,1.2209,6.4279,6.4279,0,0,0-.766.711A6.2832,6.2832,0,0,0,26.9972,29.19a6.1544,6.1544,0,0,0-.33,1.1617,6.34,6.34,0,0,0,1.07,4.7132,6.4168,6.4168,0,0,0,1.309,1.3547,6.3556,6.3556,0,0,0,3.7115,1.332,6.5086,6.5086,0,0,0,.9736-.06,6.377,6.377,0,0,0,5.51-6.1268A6.2446,6.2446,0,0,0,38.657,28.77l-.06-.1292.0869-.1134a16.7621,16.7621,0,0,0,1.3835-2.1307C40.129,26.2847,40.1854,26.1668,40.2445,26.0519ZM25.779,4.2889A14.18,14.18,0,0,1,39.6022,18.7782c-.0023.0938-.0092.1857-.0153.2776l-.0116.1715a14.0607,14.0607,0,0,1-1.282,5.1335,14.3288,14.3288,0,0,1-2.884,4.1373,3.8339,3.8339,0,0,1,1.3351,2.6806c.0069.1068.0108.2161.0084.3268a3.8322,3.8322,0,0,1-1.86,3.2,3.7686,3.7686,0,0,1-3.3093.313,3.8985,3.8985,0,0,1-.8-.4,3.8983,3.8983,0,0,1-1.6966-2.7744,3.8911,3.8911,0,0,1-.0269-.52,3.82,3.82,0,0,1,.2837-1.3478l.1495-.3257c.0467-.09.0959-.1788.15-.2654l.0423-.0584c.0325-.05.0683-.0972.1029-.1455l.2232-.2837a3.8844,3.8844,0,0,1,2.6948-1.32,11.6577,11.6577,0,0,0,3.3962-4.3917A11.618,11.618,0,0,0,37.1158,18.72c.0016-.0665-.0015-.1319-.0046-.1972-.0023-.0562-.0054-.1123-.0054-.1688a11.6578,11.6578,0,0,0-22.7375-3.5489l-.1615.5264c-.043.01-.0863.0184-.1292.0292a16.6239,16.6239,0,0,0-2.2118.731c-.1457.06-.283.1186-.4188.1775l.1219-.5662A14.0821,14.0821,0,0,1,25.779,4.2889Zm-3.4278,40.73A14.1664,14.1664,0,0,1,11.2474,19.1347c.0377-.0212.0762-.04.1154-.0593l.0807-.0411a14.2879,14.2879,0,0,1,7.5977-1.6608,14.4554,14.4554,0,0,1,2.7079.4268,3.8354,3.8354,0,0,1,1.6281-2.5137c.09-.0607.1815-.12.2776-.1738a3.8392,3.8392,0,0,1,5.7065,3.0132,3.8616,3.8616,0,0,1-.626,2.4668,3.834,3.834,0,0,1-.89.9479,3.9516,3.9516,0,0,1-.4338.2869,3.78,3.78,0,0,1-1.7312.4752l-.0707.0039c-.0546.003-.1154.0058-.1631.005a3.8552,3.8552,0,0,1-3.1154-1.7173,11.7336,11.7336,0,0,0-5.705-.6695,12.0042,12.0042,0,0,0-4.1645,1.38c-.1077.06-.21.1273-.3123.1938l-.1691.1092a11.6649,11.6649,0,0,0,8.1921,21.3843l.5358-.1186c.0331.0356.0637.0726.0971.1079a16.52,16.52,0,0,0,1.7412,1.59q.171.1356.3368.2617Zm22.6161-6.1087a14.2243,14.2243,0,0,1-19.4636,4.7086l-.1454-.0957a14.087,14.087,0,0,1-3.9038-3.6547A14.3055,14.3055,0,0,1,19.19,35.1224a3.837,3.837,0,0,1-2.9886-.1861c-.0969-.048-.1938-.0988-.2884-.1561a3.8457,3.8457,0,1,1,5.4257-1.5354,11.7827,11.7827,0,0,0,2.25,5.3492,12.1088,12.1088,0,0,0,3.21,2.9025c.1285.0784.2592.1469.3907.2153l.1846.0974A11.6574,11.6574,0,0,0,41.6726,23.8706l-.3552-.4432c.0094-.03.02-.0591.03-.0894a16.5156,16.5156,0,0,0,.5275-2.2549c.0251-.1565.046-.3081.0667-.4594l.42.4025-.0005.0038A14.1355,14.1355,0,0,1,44.9673,38.9105Z"/><path class="cls-2" d="M77.2955,17.8291a4.9175,4.9175,0,0,0-4.2768,2.09A9.7622,9.7622,0,0,0,71.54,25.6432a10.0324,10.0324,0,0,0,1.3665,5.6758,4.9252,4.9252,0,0,0,4.3892,2.01,12.5712,12.5712,0,0,0,2.7979-.3221,27.5048,27.5048,0,0,0,3.0551-.9005V36.19a16.4341,16.4341,0,0,1-2.99.9006,17.3744,17.3744,0,0,1-3.3124.2887,10.6671,10.6671,0,0,1-5.852-1.4628,8.6709,8.6709,0,0,1-3.3773-4.1157,16.1743,16.1743,0,0,1-1.093-6.19,14.2959,14.2959,0,0,1,1.254-6.1417,9.7074,9.7074,0,0,1,3.65-4.1806,10.7905,10.7905,0,0,1,5.8682-1.5113,13.9375,13.9375,0,0,1,3.4249.4345,18.2635,18.2635,0,0,1,3.2963,1.1741l-1.5762,3.9547A25.1707,25.1707,0,0,0,79.8523,18.28,7.7744,7.7744,0,0,0,77.2955,17.8291Z"/><path class="cls-2" d="M102.1521,28.2476A9.3225,9.3225,0,0,1,99.8526,35a8.2868,8.2868,0,0,1-6.2541,2.38,8.8355,8.8355,0,0,1-4.3569-1.0606,7.4875,7.4875,0,0,1-3.0065-3.1028,10.4018,10.4018,0,0,1-1.094-4.9687q0-4.3729,2.2832-6.72a8.3424,8.3424,0,0,1,6.27-2.3481,8.8135,8.8135,0,0,1,4.374,1.0616,7.5563,7.5563,0,0,1,2.99,3.0866A10.2468,10.2468,0,0,1,102.1521,28.2476Zm-12.1224,0a7.3885,7.3885,0,0,0,.8519,3.94,3.0491,3.0491,0,0,0,2.7817,1.3341,3.0182,3.0182,0,0,0,2.7492-1.3341,7.397,7.397,0,0,0,.8519-3.94,7.2207,7.2207,0,0,0-.8519-3.9071,3.0751,3.0751,0,0,0-2.7816-1.3016,3.04,3.04,0,0,0-2.7493,1.3016A7.2125,7.2125,0,0,0,90.03,28.2476Z"/><path class="cls-2" d="M126.08,19.1794a6.1283,6.1283,0,0,1,4.5179,1.5276q1.5272,1.5285,1.5276,4.9038V37.0585h-4.7914V26.8011q0-3.7941-2.6368-3.7946a2.89,2.89,0,0,0-2.7016,1.35,7.691,7.691,0,0,0-.8033,3.8908v8.8109h-4.7914V26.8011q0-3.7941-2.6368-3.7946a2.8008,2.8008,0,0,0-2.7492,1.4951,9.7388,9.7388,0,0,0-.7557,4.293v8.2639h-4.7914V19.5015h3.666l.6432,2.2509h.2573a4.7092,4.7092,0,0,1,2.2022-1.9622,7.2158,7.2158,0,0,1,2.91-.6108,7.65,7.65,0,0,1,3.2638.627,4.5534,4.5534,0,0,1,2.0736,1.946h.4184A4.6849,4.6849,0,0,1,123.137,19.79,7.4446,7.4446,0,0,1,126.08,19.1794Z"/><path class="cls-2" d="M156.8815,19.1794a6.1286,6.1286,0,0,1,4.5179,1.5276q1.527,1.5285,1.5276,4.9038V37.0585h-4.7914V26.8011q0-3.7941-2.6368-3.7946a2.89,2.89,0,0,0-2.7017,1.35,7.6921,7.6921,0,0,0-.8033,3.8908v8.8109h-4.7914V26.8011q0-3.7941-2.6368-3.7946a2.8009,2.8009,0,0,0-2.7492,1.4951,9.7388,9.7388,0,0,0-.7557,4.293v8.2639h-4.7914V19.5015h3.666l.6433,2.2509h.2572a4.7089,4.7089,0,0,1,2.2023-1.9622,7.2155,7.2155,0,0,1,2.91-.6108,7.65,7.65,0,0,1,3.2638.627,4.5534,4.5534,0,0,1,2.0736,1.946h.4183a4.6847,4.6847,0,0,1,2.2347-1.9622A7.4443,7.4443,0,0,1,156.8815,19.1794Z"/><path class="cls-2" d="M183.1177,28.2476A9.3229,9.3229,0,0,1,180.8183,35a8.2872,8.2872,0,0,1-6.2542,2.38,8.8348,8.8348,0,0,1-4.3568-1.0606,7.4877,7.4877,0,0,1-3.0066-3.1028,10.403,10.403,0,0,1-1.094-4.9687q0-4.3729,2.2833-6.72a8.3423,8.3423,0,0,1,6.27-2.3481,8.8139,8.8139,0,0,1,4.3741,1.0616,7.5561,7.5561,0,0,1,2.99,3.0866A10.2456,10.2456,0,0,1,183.1177,28.2476Zm-12.1223,0a7.3876,7.3876,0,0,0,.8519,3.94,3.049,3.049,0,0,0,2.7816,1.3341,3.0184,3.0184,0,0,0,2.7493-1.3341,7.3979,7.3979,0,0,0,.8519-3.94,7.2216,7.2216,0,0,0-.8519-3.9071,3.0752,3.0752,0,0,0-2.7817-1.3016,3.04,3.04,0,0,0-2.7492,1.3016A7.2116,7.2116,0,0,0,170.9954,28.2476Z"/><path class="cls-2" d="M196.401,19.1794a6.5413,6.5413,0,0,1,4.5341,1.5276q1.7032,1.5285,1.7038,4.9038V37.0585h-4.7914V26.8011a4.9191,4.9191,0,0,0-.6746-2.8465,2.4639,2.4639,0,0,0-2.1547-.9481,3.0853,3.0853,0,0,0-2.9913,1.4951,9.24,9.24,0,0,0-.8033,4.293v8.2639h-4.7914V19.5015h3.666l.6432,2.2509h.2573a4.8338,4.8338,0,0,1,2.2985-1.9622A7.9927,7.9927,0,0,1,196.401,19.1794Z"/><path class="cls-2" d="M217.396,16.3177a7.264,7.264,0,0,0-5.8206,2.4758,10.0881,10.0881,0,0,0-2.1222,6.7849,10.6042,10.6042,0,0,0,1.9774,6.77,7.1157,7.1157,0,0,0,5.933,2.4919,15.1356,15.1356,0,0,0,2.83-.2573q1.3492-.2568,2.6682-.6432v2.5081a14.0315,14.0315,0,0,1-2.653.7071,20.42,20.42,0,0,1-3.2638.2249,10.97,10.97,0,0,1-5.852-1.4466,8.9008,8.9008,0,0,1-3.5212-4.1157,15.4676,15.4676,0,0,1-1.174-6.27,14.0281,14.0281,0,0,1,1.27-6.1265,9.5652,9.5652,0,0,1,3.746-4.1482,11.43,11.43,0,0,1,6.0141-1.4951,13.9971,13.9971,0,0,1,6.3341,1.3513l-1.1578,2.4433a18.3042,18.3042,0,0,0-2.3633-.8681A9.9778,9.9778,0,0,0,217.396,16.3177Z"/><path class="cls-2" d="M228.4953,13.36a1.6937,1.6937,0,0,1,1.1416.4336,1.7243,1.7243,0,0,1,.4984,1.3665,1.7215,1.7215,0,0,1-.4984,1.3665,1.69,1.69,0,0,1-1.1416.4346,1.714,1.714,0,0,1-1.19-.4346,1.7517,1.7517,0,0,1-.4822-1.3665,1.7546,1.7546,0,0,1,.4822-1.3665A1.7179,1.7179,0,0,1,228.4953,13.36Zm1.3827,6.4628V37.0585h-2.83V19.8226Z"/><path class="cls-2" d="M242.5757,19.5015c.3222,0,.6646.0162,1.0292.0476a8.3809,8.3809,0,0,1,.9968.1449l-.3535,2.6054a9.0676,9.0676,0,0,0-.933-.1611,7.647,7.647,0,0,0-.9319-.0648,4.5863,4.5863,0,0,0-2.4768.7243,5.2129,5.2129,0,0,0-1.8487,2.0249,6.3879,6.3879,0,0,0-.6908,3.039v9.1968h-2.83V19.8226h2.3157l.3211,3.1514h.1286a8.1512,8.1512,0,0,1,2.1385-2.4433A4.9873,4.9873,0,0,1,242.5757,19.5015Z"/><path class="cls-2" d="M253.38,37.38a8.63,8.63,0,0,1-4.0833-.932,6.5556,6.5556,0,0,1-2.7817-2.8941,10.8977,10.8977,0,0,1-1.013-5.0163,11.1377,11.1377,0,0,1,1.0454-5.1773,6.6045,6.6045,0,0,1,2.8779-2.9265,9.025,9.025,0,0,1,4.1482-.932,11.6736,11.6736,0,0,1,2.5243.2735,8.8406,8.8406,0,0,1,2.01.6585l-.8691,2.3481a16.6947,16.6947,0,0,0-1.8-.547,8.0026,8.0026,0,0,0-1.93-.2573q-5.0813,0-5.08,6.5276a7.8728,7.8728,0,0,0,1.2379,4.7752,4.3034,4.3034,0,0,0,3.6812,1.6562,9.6759,9.6759,0,0,0,2.4767-.29,12.0547,12.0547,0,0,0,1.9936-.707v2.5081a8.0771,8.0771,0,0,1-1.9135.6909A11.3814,11.3814,0,0,1,253.38,37.38Z"/><path class="cls-2" d="M264.057,37.0585h-2.83V12.62h2.83Z"/><path class="cls-2" d="M274.8929,19.5015a7.2341,7.2341,0,0,1,3.7946.9644,6.3063,6.3063,0,0,1,2.46,2.7168A9.2785,9.2785,0,0,1,282,27.2833v1.7038H270.1987a6.5018,6.5018,0,0,0,1.4952,4.4541,5.2176,5.2176,0,0,0,4.0033,1.5276,12.5159,12.5159,0,0,0,2.91-.306,16.4262,16.4262,0,0,0,2.6206-.8843v2.4757a13.4482,13.4482,0,0,1-2.6044.853,14.96,14.96,0,0,1-3.0551.2725,9.0654,9.0654,0,0,1-4.3417-.9968,6.9739,6.9739,0,0,1-2.9093-2.9579,10.2307,10.2307,0,0,1-1.0454-4.8553,11.38,11.38,0,0,1,.9482-4.8562,7.2137,7.2137,0,0,1,2.6692-3.119A7.3052,7.3052,0,0,1,274.8929,19.5015Zm-.0314,2.3147a4.09,4.09,0,0,0-3.2,1.3027,6.1327,6.1327,0,0,0-1.3989,3.6174h8.7785a6.0442,6.0442,0,0,0-1.0292-3.5536A3.6382,3.6382,0,0,0,274.8615,21.8162Z"/></svg>