<svg width="175" height="17" viewBox="0 0 175 17" fill="none" xmlns="http://www.w3.org/2000/svg">
<path d="M5.8 13.144C4.16267 13.144 2.91467 12.6747 2.056 11.736C1.19733 10.792 0.768 9.24533 0.768 7.096C0.768 4.984 1.20533 3.44267 2.08 2.472C2.95467 1.50133 4.23467 1.016 5.92 1.016C6.72533 1.016 7.504 1.12 8.256 1.328V2.432C7.552 2.21867 6.78667 2.112 5.96 2.112C5.096 2.112 4.38133 2.272 3.816 2.592C3.25067 2.90667 2.82133 3.42667 2.528 4.152C2.24 4.87733 2.096 5.848 2.096 7.064C2.096 8.30667 2.24267 9.29333 2.536 10.024C2.82933 10.7547 3.25067 11.2747 3.8 11.584C4.35467 11.8933 5.05067 12.048 5.888 12.048C6.288 12.048 6.67467 12.016 7.048 11.952C7.42667 11.8827 7.82933 11.776 8.256 11.632V12.744C7.48267 13.0107 6.664 13.144 5.8 13.144ZM12.3003 13.152C11.2016 13.152 10.3483 12.7893 9.74025 12.064C9.13225 11.3333 8.82825 10.2027 8.82825 8.672C8.82825 7.13067 9.12958 6 9.73225 5.28C10.3349 4.55467 11.1909 4.192 12.3003 4.192C13.4043 4.192 14.2576 4.55467 14.8603 5.28C15.4629 6.00533 15.7643 7.13333 15.7643 8.664C15.7643 10.1947 15.4603 11.3253 14.8523 12.056C14.2496 12.7867 13.3989 13.152 12.3003 13.152ZM12.3003 12.136C12.7696 12.136 13.1643 12.0293 13.4843 11.816C13.8096 11.5973 14.0576 11.2347 14.2283 10.728C14.4043 10.2213 14.4923 9.54133 14.4923 8.688C14.4923 7.81867 14.4043 7.128 14.2283 6.616C14.0576 6.104 13.8123 5.74133 13.4923 5.528C13.1723 5.31467 12.7749 5.208 12.3003 5.208C11.8256 5.208 11.4283 5.31467 11.1083 5.528C10.7883 5.74133 10.5403 6.10133 10.3643 6.608C10.1936 7.10933 10.1083 7.78667 10.1083 8.64C10.1083 9.50933 10.1936 10.2027 10.3643 10.72C10.5403 11.232 10.7883 11.5973 11.1083 11.816C11.4283 12.0293 11.8256 12.136 12.3003 12.136ZM25.7495 4.192C26.5015 4.192 27.0988 4.424 27.5415 4.888C27.9842 5.34667 28.2055 6.09333 28.2055 7.128V13H26.9655V7.176C26.9655 5.928 26.4588 5.304 25.4455 5.304C25.0935 5.304 24.7388 5.39467 24.3815 5.576C24.0242 5.75733 23.7255 6.04533 23.4855 6.44C23.5068 6.62667 23.5175 6.84533 23.5175 7.096V13H22.2855V7.176C22.2855 6.504 22.1548 6.024 21.8935 5.736C21.6375 5.448 21.2748 5.304 20.8055 5.304C20.4428 5.304 20.0748 5.40267 19.7015 5.6C19.3335 5.79733 19.0322 6.10133 18.7975 6.512V13H17.5495V4.32H18.5975L18.6935 5.296H18.7735C19.0828 4.928 19.4402 4.65333 19.8455 4.472C20.2508 4.28533 20.6855 4.192 21.1495 4.192C22.1628 4.192 22.8535 4.60267 23.2215 5.424C23.5735 4.992 23.9682 4.68 24.4055 4.488C24.8428 4.29067 25.2908 4.192 25.7495 4.192ZM38.5464 4.192C39.2984 4.192 39.8957 4.424 40.3384 4.888C40.781 5.34667 41.0024 6.09333 41.0024 7.128V13H39.7624V7.176C39.7624 5.928 39.2557 5.304 38.2424 5.304C37.8904 5.304 37.5357 5.39467 37.1784 5.576C36.821 5.75733 36.5224 6.04533 36.2824 6.44C36.3037 6.62667 36.3144 6.84533 36.3144 7.096V13H35.0824V7.176C35.0824 6.504 34.9517 6.024 34.6904 5.736C34.4344 5.448 34.0717 5.304 33.6024 5.304C33.2397 5.304 32.8717 5.40267 32.4984 5.6C32.1304 5.79733 31.829 6.10133 31.5944 6.512V13H30.3464V4.32H31.3944L31.4904 5.296H31.5704C31.8797 4.928 32.237 4.65333 32.6424 4.472C33.0477 4.28533 33.4824 4.192 33.9464 4.192C34.9597 4.192 35.6504 4.60267 36.0184 5.424C36.3704 4.992 36.765 4.68 37.2024 4.488C37.6397 4.29067 38.0877 4.192 38.5464 4.192ZM46.1753 13.152C45.0766 13.152 44.2233 12.7893 43.6153 12.064C43.0073 11.3333 42.7033 10.2027 42.7033 8.672C42.7033 7.13067 43.0046 6 43.6073 5.28C44.2099 4.55467 45.0659 4.192 46.1753 4.192C47.2793 4.192 48.1326 4.55467 48.7353 5.28C49.3379 6.00533 49.6393 7.13333 49.6393 8.664C49.6393 10.1947 49.3353 11.3253 48.7273 12.056C48.1246 12.7867 47.2739 13.152 46.1753 13.152ZM46.1753 12.136C46.6446 12.136 47.0393 12.0293 47.3593 11.816C47.6846 11.5973 47.9326 11.2347 48.1033 10.728C48.2793 10.2213 48.3673 9.54133 48.3673 8.688C48.3673 7.81867 48.2793 7.128 48.1033 6.616C47.9326 6.104 47.6873 5.74133 47.3673 5.528C47.0473 5.31467 46.6499 5.208 46.1753 5.208C45.7006 5.208 45.3033 5.31467 44.9833 5.528C44.6633 5.74133 44.4153 6.10133 44.2393 6.608C44.0686 7.10933 43.9833 7.78667 43.9833 8.64C43.9833 9.50933 44.0686 10.2027 44.2393 10.72C44.4153 11.232 44.6633 11.5973 44.9833 11.816C45.3033 12.0293 45.7006 12.136 46.1753 12.136ZM51.4245 4.32H52.4725L52.5685 5.288H52.6485C52.9632 4.936 53.3365 4.66667 53.7685 4.48C54.2005 4.288 54.6645 4.192 55.1605 4.192C55.9605 4.192 56.5872 4.42133 57.0405 4.88C57.4992 5.33333 57.7285 6.07467 57.7285 7.104V13H56.4805V7.168C56.4805 6.496 56.3392 6.01867 56.0565 5.736C55.7792 5.448 55.3792 5.304 54.8565 5.304C54.4565 5.304 54.0565 5.4 53.6565 5.592C53.2565 5.77867 52.9285 6.07467 52.6725 6.48V13H51.4245V4.32ZM64.5656 13.144C62.9283 13.144 61.6803 12.6747 60.8216 11.736C59.963 10.792 59.5336 9.24533 59.5336 7.096C59.5336 4.984 59.971 3.44267 60.8456 2.472C61.7203 1.50133 63.0003 1.016 64.6856 1.016C65.491 1.016 66.2696 1.12 67.0216 1.328V2.432C66.3176 2.21867 65.5523 2.112 64.7256 2.112C63.8616 2.112 63.147 2.272 62.5816 2.592C62.0163 2.90667 61.587 3.42667 61.2936 4.152C61.0056 4.87733 60.8616 5.848 60.8616 7.064C60.8616 8.30667 61.0083 9.29333 61.3016 10.024C61.595 10.7547 62.0163 11.2747 62.5656 11.584C63.1203 11.8933 63.8163 12.048 64.6536 12.048C65.0536 12.048 65.4403 12.016 65.8136 11.952C66.1923 11.8827 66.595 11.776 67.0216 11.632V12.744C66.2483 13.0107 65.4296 13.144 64.5656 13.144ZM68.5026 13V4.32H69.7506V13H68.5026ZM69.1266 2.424C68.844 2.424 68.6253 2.35467 68.4706 2.216C68.3213 2.07733 68.2466 1.88267 68.2466 1.632C68.2466 1.38133 68.3213 1.18667 68.4706 1.048C68.6253 0.904 68.844 0.832 69.1266 0.832C69.404 0.832 69.6173 0.904 69.7666 1.048C69.9213 1.18667 69.9986 1.38133 69.9986 1.632C69.9986 1.88267 69.9213 2.07733 69.7666 2.216C69.6173 2.35467 69.404 2.424 69.1266 2.424ZM71.9714 4.32H73.0194L73.1154 5.48H73.2034C73.47 5.07467 73.8087 4.768 74.2194 4.56C74.63 4.34667 75.0727 4.24 75.5474 4.24C75.7554 4.24 75.9474 4.25333 76.1234 4.28V5.448C75.942 5.42133 75.7287 5.408 75.4834 5.408C75.046 5.408 74.6167 5.52 74.1954 5.744C73.7794 5.96267 73.454 6.27467 73.2194 6.68V13H71.9714V4.32ZM80.3273 13.152C79.1273 13.152 78.2233 12.7947 77.6153 12.08C77.0073 11.3653 76.7033 10.2267 76.7033 8.664C76.7033 7.096 77.0339 5.96 77.6953 5.256C78.3566 4.54667 79.3433 4.192 80.6553 4.192C81.2473 4.192 81.7886 4.256 82.2793 4.384V5.448C81.7726 5.32 81.2819 5.256 80.8073 5.256C80.1513 5.256 79.6206 5.36267 79.2153 5.576C78.8099 5.78933 78.5059 6.14133 78.3033 6.632C78.1059 7.12267 78.0073 7.78933 78.0073 8.632C78.0073 9.48533 78.1006 10.1653 78.2873 10.672C78.4739 11.1787 78.7486 11.5413 79.1113 11.76C79.4739 11.9787 79.9406 12.088 80.5113 12.088C81.0286 12.088 81.6179 11.9787 82.2793 11.76V12.816C81.6393 13.04 80.9886 13.152 80.3273 13.152ZM83.6745 13V0.0719995H84.9225V13H83.6745ZM93.1353 9.08H87.9753C87.9913 9.83733 88.0979 10.4373 88.2953 10.88C88.4979 11.3227 88.7939 11.6427 89.1833 11.84C89.5779 12.032 90.0899 12.128 90.7193 12.128C91.3006 12.128 91.9673 12.0187 92.7193 11.8V12.832C91.9886 13.0453 91.2739 13.152 90.5753 13.152C89.7059 13.152 88.9859 13.0027 88.4153 12.704C87.8499 12.4 87.4233 11.9173 87.1353 11.256C86.8473 10.5947 86.7033 9.728 86.7033 8.656C86.7033 7.14133 86.9939 6.01867 87.5753 5.288C88.1566 4.55733 88.9673 4.192 90.0073 4.192C91.0206 4.192 91.7939 4.55467 92.3273 5.28C92.8659 6.00533 93.1353 7.14133 93.1353 8.688V9.08ZM89.9993 5.104C89.3699 5.104 88.8793 5.34133 88.5273 5.816C88.1806 6.29067 87.9966 7.09067 87.9753 8.216H91.9273C91.9166 7.44267 91.8313 6.82667 91.6713 6.368C91.5166 5.90933 91.3006 5.584 91.0233 5.392C90.7459 5.2 90.4046 5.104 89.9993 5.104ZM101.407 10.296H106.607V13H98.1434V1.16H106.527V3.864H101.407V5.608H105.687V8.312H101.407V10.296ZM113.018 8.528L115.866 13H112.346L111.09 10.856L109.786 13H106.362L109.178 8.568L106.418 4.2H109.938L111.146 6.224L112.338 4.2H115.754L113.018 8.528ZM116.321 4.2H119.057L119.257 5.152H119.393C119.606 4.80533 119.884 4.536 120.225 4.344C120.572 4.152 120.98 4.056 121.449 4.056C122.073 4.056 122.641 4.21333 123.153 4.528C123.67 4.84267 124.084 5.33067 124.393 5.992C124.702 6.648 124.857 7.464 124.857 8.44C124.857 9.97067 124.454 11.1413 123.649 11.952C122.844 12.7627 121.63 13.168 120.009 13.168C119.897 13.168 119.75 13.1627 119.569 13.152V16.52H116.321V4.2ZM120.129 10.728C120.465 10.728 120.737 10.6667 120.945 10.544C121.158 10.416 121.316 10.2053 121.417 9.912C121.524 9.61867 121.577 9.21867 121.577 8.712C121.577 8.19467 121.529 7.792 121.433 7.504C121.342 7.21067 121.209 7.008 121.033 6.896C120.862 6.77867 120.646 6.72 120.385 6.72C120.236 6.72 120.089 6.73867 119.945 6.776C119.801 6.81333 119.676 6.86667 119.569 6.936V10.68C119.793 10.712 119.98 10.728 120.129 10.728ZM130.078 13.176C128.708 13.176 127.646 12.7947 126.894 12.032C126.148 11.264 125.774 10.136 125.774 8.648C125.774 7.128 126.142 5.984 126.878 5.216C127.62 4.44267 128.686 4.056 130.078 4.056C131.46 4.056 132.521 4.44533 133.262 5.224C134.004 6.00267 134.374 7.136 134.374 8.624C134.374 10.1227 134.001 11.256 133.254 12.024C132.508 12.792 131.449 13.176 130.078 13.176ZM130.078 10.776C130.318 10.776 130.51 10.7173 130.654 10.6C130.798 10.4827 130.905 10.272 130.974 9.968C131.049 9.65867 131.086 9.21867 131.086 8.648C131.086 8.06667 131.049 7.616 130.974 7.296C130.9 6.976 130.79 6.75733 130.646 6.64C130.502 6.51733 130.313 6.456 130.078 6.456C129.844 6.456 129.654 6.51733 129.51 6.64C129.366 6.75733 129.254 6.97333 129.174 7.288C129.1 7.60267 129.062 8.048 129.062 8.624C129.062 9.2 129.097 9.64533 129.166 9.96C129.241 10.2693 129.35 10.4827 129.494 10.6C129.644 10.7173 129.838 10.776 130.078 10.776ZM138.07 13.176C137.03 13.176 136.108 13.0427 135.302 12.776V10.352C135.692 10.48 136.118 10.5787 136.582 10.648C137.052 10.7173 137.526 10.752 138.006 10.752C138.401 10.752 138.678 10.712 138.838 10.632C139.004 10.5467 139.086 10.4267 139.086 10.272C139.086 10.176 139.057 10.1013 138.998 10.048C138.94 9.99467 138.838 9.95467 138.694 9.928L137.262 9.64C136.516 9.496 135.953 9.21067 135.574 8.784C135.201 8.352 135.014 7.76267 135.014 7.016C135.014 6.408 135.172 5.88267 135.486 5.44C135.801 4.99733 136.276 4.656 136.91 4.416C137.545 4.176 138.326 4.056 139.254 4.056C140.097 4.056 140.862 4.144 141.55 4.32V6.752C140.905 6.57067 140.188 6.48 139.398 6.48C138.449 6.48 137.974 6.65067 137.974 6.992C137.974 7.07733 138.006 7.144 138.07 7.192C138.134 7.24 138.241 7.27733 138.39 7.304L139.822 7.592C140.558 7.74133 141.113 8.01867 141.486 8.424C141.86 8.824 142.046 9.41067 142.046 10.184C142.046 10.7973 141.886 11.3307 141.566 11.784C141.246 12.232 140.788 12.576 140.19 12.816C139.593 13.056 138.886 13.176 138.07 13.176ZM145.77 13.16C144.9 13.16 144.207 12.8827 143.69 12.328C143.178 11.768 142.922 10.8907 142.922 9.696V4.2H146.17V9.432C146.17 9.75733 146.231 9.98933 146.354 10.128C146.476 10.2667 146.65 10.336 146.874 10.336C147.028 10.336 147.188 10.3013 147.354 10.232C147.524 10.1627 147.66 10.0747 147.762 9.968V4.2H151.01V13H148.33L148.106 12.136H147.978C147.386 12.8187 146.65 13.16 145.77 13.16ZM152.415 4.2H155.071L155.319 5.368H155.455C155.641 4.90933 155.911 4.576 156.263 4.368C156.615 4.16 157.036 4.056 157.527 4.056C157.745 4.056 157.977 4.07733 158.223 4.12V7.08C157.983 7.02667 157.681 7 157.319 7C156.983 7 156.663 7.05333 156.359 7.16C156.055 7.26667 155.823 7.40533 155.663 7.576V13H152.415V4.2ZM166.649 9.544H161.937C161.964 9.84267 162.044 10.072 162.177 10.232C162.31 10.392 162.524 10.5093 162.817 10.584C163.11 10.6533 163.521 10.688 164.049 10.688C164.652 10.688 165.358 10.6053 166.169 10.44V12.904C165.294 13.0853 164.438 13.176 163.601 13.176C162.433 13.176 161.486 13.016 160.761 12.696C160.041 12.3707 159.51 11.872 159.169 11.2C158.833 10.528 158.665 9.65067 158.665 8.568C158.665 7.62933 158.822 6.824 159.137 6.152C159.457 5.47467 159.926 4.95733 160.545 4.6C161.169 4.23733 161.929 4.056 162.825 4.056C164.084 4.056 165.036 4.45867 165.681 5.264C166.326 6.064 166.649 7.20267 166.649 8.68V9.544ZM162.793 6.088C162.585 6.088 162.42 6.136 162.297 6.232C162.174 6.32267 162.081 6.48267 162.017 6.712C161.958 6.94133 161.926 7.26667 161.921 7.688H163.641C163.636 7.272 163.604 6.94933 163.545 6.72C163.486 6.48533 163.396 6.32267 163.273 6.232C163.156 6.136 162.996 6.088 162.793 6.088ZM170.274 13.176C169.234 13.176 168.311 13.0427 167.506 12.776V10.352C167.895 10.48 168.322 10.5787 168.786 10.648C169.255 10.7173 169.73 10.752 170.21 10.752C170.604 10.752 170.882 10.712 171.042 10.632C171.207 10.5467 171.29 10.4267 171.29 10.272C171.29 10.176 171.26 10.1013 171.202 10.048C171.143 9.99467 171.042 9.95467 170.898 9.928L169.466 9.64C168.719 9.496 168.156 9.21067 167.778 8.784C167.404 8.352 167.218 7.76267 167.218 7.016C167.218 6.408 167.375 5.88267 167.69 5.44C168.004 4.99733 168.479 4.656 169.114 4.416C169.748 4.176 170.53 4.056 171.457 4.056C172.3 4.056 173.066 4.144 173.754 4.32V6.752C173.108 6.57067 172.391 6.48 171.602 6.48C170.652 6.48 170.178 6.65067 170.178 6.992C170.178 7.07733 170.21 7.144 170.274 7.192C170.338 7.24 170.444 7.27733 170.594 7.304L172.026 7.592C172.762 7.74133 173.316 8.01867 173.69 8.424C174.063 8.824 174.25 9.41067 174.25 10.184C174.25 10.7973 174.09 11.3307 173.77 11.784C173.45 12.232 172.991 12.576 172.394 12.816C171.796 13.056 171.09 13.176 170.274 13.176Z" fill="#24396E"/>
</svg>
