<svg width="115" height="13" viewBox="0 0 115 13" fill="none" xmlns="http://www.w3.org/2000/svg">
<path d="M5.808 12.16C4.65067 12.16 3.69867 11.976 2.952 11.608C2.20533 11.24 1.648 10.6773 1.28 9.92C0.917333 9.15733 0.736 8.17867 0.736 6.984V0.16H4.048V7.328C4.048 8.08 4.19467 8.62133 4.488 8.952C4.78667 9.27733 5.22667 9.44 5.808 9.44C6.38933 9.44 6.82667 9.27733 7.12 8.952C7.41333 8.62133 7.56 8.08 7.56 7.328V0.16H10.8V6.984C10.8 8.17867 10.6213 9.15733 10.264 9.92C9.90667 10.6773 9.36 11.24 8.624 11.608C7.888 11.976 6.94933 12.16 5.808 12.16ZM26.0429 0.16H29.1469L26.4349 12H22.1869L20.4509 4.2L18.5789 12H14.3229L11.6189 0.16H14.9469L16.7309 8.664L18.6989 0.16H22.2829L24.1549 8.816L26.0429 0.16ZM38.6594 12.144C37.022 12.144 35.774 11.6747 34.9154 10.736C34.0567 9.792 33.6274 8.24533 33.6274 6.096C33.6274 3.984 34.0647 2.44267 34.9394 1.472C35.814 0.501333 37.094 0.0159998 38.7794 0.0159998C39.5847 0.0159998 40.3634 0.12 41.1154 0.327999V1.432C40.4114 1.21867 39.646 1.112 38.8194 1.112C37.9554 1.112 37.2407 1.272 36.6754 1.592C36.11 1.90667 35.6807 2.42667 35.3874 3.152C35.0994 3.87733 34.9554 4.848 34.9554 6.064C34.9554 7.30667 35.102 8.29333 35.3954 9.024C35.6887 9.75467 36.11 10.2747 36.6594 10.584C37.214 10.8933 37.91 11.048 38.7474 11.048C39.1474 11.048 39.534 11.016 39.9074 10.952C40.286 10.8827 40.6887 10.776 41.1154 10.632V11.744C40.342 12.0107 39.5234 12.144 38.6594 12.144ZM46.4923 12.144C45.0416 12.144 43.9163 11.656 43.1163 10.68C42.3216 9.704 41.9243 8.17067 41.9243 6.08C41.9243 3.98933 42.3216 2.456 43.1163 1.48C43.9163 0.504 45.0416 0.0159998 46.4923 0.0159998C47.9376 0.0159998 49.0603 0.506667 49.8603 1.488C50.6603 2.464 51.0603 3.99467 51.0603 6.08C51.0603 8.16533 50.6603 9.69867 49.8603 10.68C49.0603 11.656 47.9376 12.144 46.4923 12.144ZM46.4923 11.064C47.5429 11.064 48.3483 10.6827 48.9083 9.92C49.4683 9.15733 49.7483 7.89067 49.7483 6.12C49.7483 4.312 49.4683 3.024 48.9083 2.256C48.3483 1.48267 47.5429 1.096 46.4923 1.096C45.4416 1.096 44.6363 1.47733 44.0763 2.24C43.5163 2.99733 43.2363 4.264 43.2363 6.04C43.2363 7.272 43.3669 8.25867 43.6283 9C43.8896 9.736 44.2576 10.264 44.7323 10.584C45.2123 10.904 45.7989 11.064 46.4923 11.064ZM60.1774 0.16H61.4334L57.4734 12H55.6334L51.6734 0.16H53.0094L56.5854 10.992L60.1774 0.16ZM62.756 12V0.16H64.02V12H62.756ZM69.0573 12.096C68.2413 12.096 67.4013 12.0453 66.5373 11.944V0.32C67.5453 0.133333 68.4893 0.039999 69.3693 0.039999C71.2306 0.039999 72.6253 0.533333 73.5533 1.52C74.4813 2.50667 74.9453 4.02667 74.9453 6.08C74.9453 7.48267 74.7266 8.62667 74.2893 9.512C73.8519 10.3973 73.1986 11.0507 72.3293 11.472C71.4653 11.888 70.3746 12.096 69.0573 12.096ZM69.3053 11.008C70.2866 11.008 71.0946 10.8427 71.7293 10.512C72.3639 10.1813 72.8386 9.65333 73.1533 8.928C73.4733 8.20267 73.6333 7.25333 73.6333 6.08C73.6333 4.91733 73.4813 3.97067 73.1773 3.24C72.8733 2.50933 72.4119 1.97333 71.7933 1.632C71.1746 1.29067 70.3826 1.12 69.4173 1.12C68.9586 1.12 68.4199 1.16533 67.8013 1.256V10.928C68.2279 10.9813 68.7293 11.008 69.3053 11.008ZM79.6308 12.16C79.0654 12.16 78.4894 12.1147 77.9028 12.024C77.3161 11.9333 76.7908 11.808 76.3268 11.648V8.952C76.8014 9.10667 77.3294 9.232 77.9108 9.328C78.4974 9.41867 79.0521 9.464 79.5748 9.464C80.1668 9.464 80.5908 9.38933 80.8468 9.24C81.1028 9.08533 81.2308 8.86933 81.2308 8.592C81.2308 8.44267 81.1934 8.31733 81.1188 8.216C81.0494 8.10933 80.9214 8.008 80.7348 7.912C80.5534 7.816 80.2894 7.71733 79.9427 7.616L78.9348 7.32C77.9854 7.048 77.2521 6.624 76.7348 6.048C76.2228 5.472 75.9668 4.728 75.9668 3.816C75.9668 2.60533 76.3961 1.66667 77.2548 0.999999C78.1188 0.333332 79.3961 -9.53674e-07 81.0868 -9.53674e-07C81.6094 -9.53674e-07 82.1081 0.0293325 82.5828 0.0879993C83.0628 0.146666 83.4894 0.226666 83.8628 0.327999V3.024C83.5214 2.92267 83.1294 2.84267 82.6868 2.784C82.2441 2.72533 81.8041 2.696 81.3668 2.696C80.5934 2.696 80.0494 2.77867 79.7348 2.944C79.4201 3.10933 79.2628 3.33067 79.2628 3.608C79.2628 3.74133 79.2921 3.856 79.3508 3.952C79.4094 4.048 79.5161 4.13867 79.6708 4.224C79.8308 4.304 80.0574 4.38933 80.3508 4.48L81.3588 4.776C82.4148 5.06933 83.2068 5.50133 83.7348 6.072C84.2628 6.64267 84.5268 7.39467 84.5268 8.328C84.5268 9.10667 84.3321 9.784 83.9427 10.36C83.5534 10.936 82.9908 11.3813 82.2548 11.696C81.5188 12.0053 80.6441 12.16 79.6308 12.16ZM92.8853 12L92.1973 9.272H88.6453L87.9653 12H84.7652L87.9893 0.16H92.9013L96.1173 12H92.8853ZM89.3173 6.584H91.5253L90.4213 2.192L89.3173 6.584ZM105.262 2.912H100.19V4.968H104.446V7.72H100.19V12H96.8778V0.16H105.262V2.912ZM109.517 9.296H114.717V12H106.253V0.16H114.637V2.864H109.517V4.608H113.797V7.312H109.517V9.296Z" fill="#24396E"/>
</svg>
