<svg width="24" height="24" viewBox="0 0 24 24" fill="none" xmlns="http://www.w3.org/2000/svg">
<path d="M21.4 10.71C21.1786 9.08556 20.5413 7.54585 19.55 6.24L21.39 4.4L19.6 2.62L17.76 4.46C16.4574 3.4631 14.9162 2.82522 13.29 2.61V0H10.77V2.6C9.14513 2.81971 7.60498 3.45713 6.30005 4.45L4.46005 2.61L2.68005 4.4L4.52005 6.24C3.52315 7.54261 2.88527 9.08387 2.67005 10.71H0.0500488V13.23H2.66005C2.87527 14.8561 3.51315 16.3974 4.51005 17.7L2.67005 19.54L4.45005 21.32L6.29005 19.48C7.5936 20.4753 9.13441 21.113 10.76 21.33V23.94H13.28V21.33C14.9087 21.1129 16.4527 20.4753 17.76 19.48L19.6 21.32L21.38 19.54L19.5401 17.7C20.537 16.3974 21.1748 14.8561 21.39 13.23H24V10.71H21.4ZM16.93 16.87C15.7866 17.9947 14.2885 18.688 12.6911 18.8316C11.0936 18.9753 9.49586 18.5604 8.17013 17.6577C6.8444 16.755 5.87281 15.4205 5.42102 13.8816C4.96924 12.3426 5.06523 10.6947 5.69263 9.21859C6.32003 7.74253 7.43999 6.52979 8.86156 5.78715C10.2831 5.0445 11.9183 4.81793 13.4882 5.14606C15.0582 5.4742 16.4657 6.33672 17.4708 7.58658C18.4759 8.83643 19.0164 10.3962 19 12C18.9935 12.9082 18.8073 13.8061 18.452 14.642C18.0967 15.4778 17.5794 16.2351 16.93 16.87Z" fill="white"/>
<path d="M12 6C10.8133 6 9.65328 6.35189 8.66658 7.01118C7.67989 7.67047 6.91085 8.60754 6.45673 9.7039C6.0026 10.8003 5.88378 12.0067 6.11529 13.1705C6.3468 14.3344 6.91825 15.4035 7.75736 16.2426C8.59648 17.0818 9.66558 17.6532 10.8295 17.8847C11.9933 18.1162 13.1997 17.9974 14.2961 17.5433C15.3925 17.0892 16.3295 16.3201 16.9888 15.3334C17.6481 14.3467 18 13.1867 18 12C18 10.4087 17.3679 8.88258 16.2426 7.75736C15.1174 6.63214 13.5913 6 12 6ZM12.78 15.25C12.78 15.2 12.04 12.41 12.04 12.41C12.04 12.41 11.28 15.2 11.27 15.25H9.64C9.64 15.2 8.47 10.74 8.47 10.74H7.8V9.74H10.8V10.74H10.04L10.79 13.64C10.79 13.64 11.89 9.8 11.9 9.75H12.9C12.9 9.8 13.9 13.64 13.9 13.64L14.71 10.74H14V9.74H16.3V10.74H15.63C15.63 10.74 14.42 15.2 14.4 15.25H12.78Z" fill="white"/>
</svg>
