<svg width="24" height="24" viewBox="0 0 24 24" fill="none" xmlns="http://www.w3.org/2000/svg">
<path d="M23.9999 13.2336V10.7115H21.3978C21.1746 9.04418 20.5178 7.51577 19.5452 6.23998L21.3851 4.39999L19.6041 2.61894L17.7641 4.45893C16.4883 3.4863 14.9599 2.82946 13.2925 2.60631V0H10.7704V2.6021C9.10308 2.82525 7.57466 3.48209 6.29888 4.45472L4.45888 2.61473L2.67784 4.39577L4.51783 6.23577C3.5452 7.51155 2.88836 9.03997 2.66521 10.7073H0.0546875V13.2294H2.65678C2.87994 14.8968 3.53678 16.4252 4.50941 17.701L2.66942 19.541L4.45046 21.322L6.29046 19.482C7.56624 20.4547 9.09466 21.1115 10.762 21.3347V23.9368H13.2841V21.3347C14.9515 21.1115 16.4799 20.4547 17.7557 19.482L19.5957 21.322L21.3767 19.541L19.5367 17.701C20.5094 16.4252 21.1662 14.8968 21.3894 13.2294H23.9999V13.2336ZM5.10309 11.9705C5.10309 10.1221 5.82309 8.38313 7.13256 7.07366C8.44203 5.76419 10.181 5.04419 12.0294 5.04419C13.8778 5.04419 15.6167 5.76419 16.9262 7.07366C18.2357 8.38313 18.9557 10.1221 18.9557 11.9705C18.9557 13.8189 18.2315 15.5621 16.9262 16.8673C15.6167 18.1768 13.8778 18.8968 12.0294 18.8968C10.181 18.8968 8.44203 18.1768 7.13256 16.8673C5.82309 15.5621 5.10309 13.8231 5.10309 11.9705Z" fill="#24396E"/>
<path d="M12 18C15.3137 18 18 15.3137 18 12C18 8.68628 15.3137 6 12 6C8.68628 6 6 8.68628 6 12C6 15.3137 8.68628 18 12 18Z" fill="white"/>
<path d="M23.9999 13.2336V10.7115H21.3978C21.1746 9.04418 20.5178 7.51577 19.5452 6.23998L21.3851 4.39999L19.6041 2.61894L17.7641 4.45893C16.4883 3.4863 14.9599 2.82946 13.2925 2.60631V0H10.7704V2.6021C9.10308 2.82525 7.57466 3.48209 6.29888 4.45472L4.45888 2.61473L2.67784 4.39577L4.51783 6.23577C3.5452 7.51155 2.88836 9.03997 2.66521 10.7073H0.0546875V13.2294H2.65678C2.87994 14.8968 3.53678 16.4252 4.50941 17.701L2.66942 19.541L4.45046 21.322L6.29046 19.482C7.56624 20.4547 9.09466 21.1115 10.762 21.3347V23.9368H13.2841V21.3347C14.9515 21.1115 16.4799 20.4547 17.7557 19.482L19.5957 21.322L21.3767 19.541L19.5367 17.701C20.5094 16.4252 21.1662 14.8968 21.3894 13.2294H23.9999V13.2336ZM5.10309 11.9705C5.10309 10.1221 5.82309 8.38313 7.13256 7.07366C8.44203 5.76419 10.181 5.04419 12.0294 5.04419C13.8778 5.04419 15.6167 5.76419 16.9262 7.07366C18.2357 8.38313 18.9557 10.1221 18.9557 11.9705C18.9557 13.8189 18.2315 15.5621 16.9262 16.8673C15.6167 18.1768 13.8778 18.8968 12.0294 18.8968C10.181 18.8968 8.44203 18.1768 7.13256 16.8673C5.82309 15.5621 5.10309 13.8231 5.10309 11.9705Z" fill="#24396E"/>
<path d="M12 18C15.3137 18 18 15.3137 18 12C18 8.68628 15.3137 6 12 6C8.68628 6 6 8.68628 6 12C6 15.3137 8.68628 18 12 18Z" fill="white"/>
<g clip-path="url(#clip0)">
<path d="M14.0386 9.75C14.0386 9.81533 14.0386 10.6772 14.0386 10.7425C14.1059 10.7425 14.7635 10.7425 14.7635 10.7425L13.9543 13.6386C13.9543 13.6386 12.9639 9.80387 12.9502 9.75C12.8955 9.75 11.9563 9.75 11.9028 9.75C11.888 9.80272 10.8166 13.6386 10.8166 13.6386L10.0713 10.7425C10.0713 10.7425 10.7585 10.7425 10.8258 10.7425C10.8258 10.6772 10.8258 9.81533 10.8258 9.75C10.7539 9.75 7.87275 9.75 7.7998 9.75C7.7998 9.81533 7.7998 10.6772 7.7998 10.7425C7.86705 10.7425 8.46996 10.7425 8.46996 10.7425C8.46996 10.7425 9.62677 15.1961 9.64159 15.25C9.69743 15.25 11.211 15.25 11.2657 15.25C11.2805 15.1973 12.0407 12.4135 12.0407 12.4135C12.0407 12.4135 12.7644 15.1961 12.7781 15.25C12.8339 15.25 14.3475 15.25 14.4022 15.25C14.417 15.1973 15.6342 10.7425 15.6342 10.7425C15.6342 10.7425 16.2326 10.7425 16.2987 10.7425C16.2987 10.6772 16.2987 9.81533 16.2987 9.75C16.2291 9.75 14.1093 9.75 14.0386 9.75Z" fill="#9651F1"/>
</g>
<defs>
<clipPath id="clip0">
<rect x="7.7998" y="9.75" width="8.5" height="5.5" fill="white"/>
</clipPath>
</defs>
</svg>
