<svg width="24" height="24" viewBox="0 0 24 24" fill="none" xmlns="http://www.w3.org/2000/svg">
<path d="M21.3998 10.71C21.1783 9.08556 20.5411 7.54585 19.5498 6.24L21.3898 4.4L19.5998 2.62L17.7598 4.46C16.4572 3.4631 14.9159 2.82522 13.2898 2.61V0H10.7698V2.6C9.14489 2.81971 7.60474 3.45713 6.2998 4.45L4.4598 2.61L2.6798 4.4L4.5198 6.24C3.5229 7.54261 2.88502 9.08387 2.6698 10.71H0.0498047V13.23H2.6598C2.87502 14.8561 3.5129 16.3974 4.5098 17.7L2.6698 19.54L4.4498 21.32L6.2898 19.48C7.59335 20.4753 9.13416 21.113 10.7598 21.33V23.94H13.2798V21.33C14.9085 21.1129 16.4525 20.4753 17.7598 19.48L19.5998 21.32L21.3798 19.54L19.5398 17.7C20.5367 16.3974 21.1746 14.8561 21.3898 13.23H23.9998V10.71H21.3998ZM16.9298 16.87C15.7864 17.9947 14.2882 18.688 12.6908 18.8316C11.0934 18.9753 9.49561 18.5604 8.16988 17.6577C6.84415 16.755 5.87256 15.4205 5.42078 13.8816C4.969 12.3426 5.06499 10.6947 5.69239 9.21859C6.31979 7.74253 7.43975 6.52979 8.86132 5.78715C10.2829 5.0445 11.918 4.81793 13.488 5.14606C15.0579 5.4742 16.4654 6.33672 17.4705 7.58658C18.4757 8.83643 19.0161 10.3962 18.9998 12C18.9933 12.9082 18.807 13.8061 18.4517 14.642C18.0965 15.4778 17.5792 16.2351 16.9298 16.87Z" fill="white"/>
<path d="M12 6C10.8133 6 9.65328 6.35189 8.66658 7.01118C7.67989 7.67047 6.91085 8.60754 6.45673 9.7039C6.0026 10.8003 5.88378 12.0067 6.11529 13.1705C6.3468 14.3344 6.91825 15.4035 7.75736 16.2426C8.59648 17.0818 9.66558 17.6532 10.8295 17.8847C11.9933 18.1162 13.1997 17.9974 14.2961 17.5433C15.3925 17.0892 16.3295 16.3201 16.9888 15.3334C17.6481 14.3467 18 13.1867 18 12C18 10.4087 17.3679 8.88258 16.2426 7.75736C15.1174 6.63214 13.5913 6 12 6ZM12.78 15.25C12.78 15.2 12.04 12.41 12.04 12.41C12.04 12.41 11.28 15.2 11.27 15.25H9.64C9.64 15.2 8.47 10.74 8.47 10.74H7.8V9.74H10.8V10.74H10.04L10.79 13.64C10.79 13.64 11.89 9.8 11.9 9.75H12.9C12.9 9.8 13.9 13.64 13.9 13.64L14.71 10.74H14V9.74H16.3V10.74H15.63C15.63 10.74 14.42 15.2 14.4 15.25H12.78Z" fill="white"/>
</svg>
